<?xml version="1.0" encoding="utf-8"?>
<!-- Generated by IcoMoon.io -->
<!DOCTYPE svg PUBLIC "-//W3C//DTD SVG 1.1//EN" "http://www.w3.org/Graphics/SVG/1.1/DTD/svg11.dtd">
<svg version="1.1" xmlns="http://www.w3.org/2000/svg" xmlns:xlink="http://www.w3.org/1999/xlink" width="304" height="48" viewBox="0 0 304 48">
<svg id="icon-github" width="48" height="48" viewBox="0 0 48 48" x="0" y="0">
<path fill="#ff264a" d="M24 42c-9.926 0-18-8.076-18-18s8.074-18 18-18 18 8.076 18 18-8.074 18-18 18zM24 10c-7.718 0-14 6.28-14 14s6.282 14 14 14 14-6.28 14-14-6.282-14-14-14z"></path>
<path fill="#ff264a" d="M27.13 25.252c0.342 0 0.632 0.168 0.882 0.51 0.248 0.338 0.374 0.756 0.374 1.25 0 0.496-0.124 0.914-0.374 1.252s-0.542 0.508-0.882 0.508c-0.362 0-0.674-0.168-0.922-0.508-0.248-0.338-0.374-0.756-0.374-1.252s0.124-0.912 0.374-1.25c0.25-0.342 0.562-0.51 0.922-0.51zM31.55 20.674c0.964 1.044 1.45 2.31 1.45 3.796 0 0.964-0.114 1.83-0.332 2.602-0.222 0.768-0.504 1.396-0.84 1.878-0.342 0.484-0.756 0.908-1.254 1.27-0.498 0.368-0.956 0.632-1.37 0.802-0.416 0.17-0.892 0.3-1.432 0.392-0.532 0.094-0.934 0.144-1.212 0.158-0.27 0.012-0.564 0.018-0.88 0.018-0.070 0-0.31 0.008-0.704 0.020-0.386 0.016-0.718 0.022-0.976 0.022s-0.59-0.006-0.976-0.022c-0.392-0.012-0.632-0.020-0.704-0.020-0.316 0-0.612-0.004-0.88-0.018-0.28-0.014-0.682-0.064-1.212-0.158-0.542-0.090-1.016-0.22-1.432-0.392-0.414-0.168-0.872-0.434-1.368-0.802-0.5-0.364-0.914-0.788-1.256-1.27-0.336-0.482-0.618-1.11-0.84-1.878-0.218-0.772-0.332-1.638-0.332-2.602 0-1.486 0.484-2.752 1.45-3.796-0.106-0.052-0.112-0.572-0.016-1.564 0.086-0.992 0.296-1.906 0.638-2.74 1.204 0.128 2.686 0.808 4.46 2.034 0.6-0.156 1.42-0.236 2.466-0.236 1.098 0 1.918 0.080 2.468 0.236 0.808-0.546 1.582-0.992 2.32-1.332 0.748-0.336 1.288-0.534 1.628-0.586l0.508-0.116c0.344 0.834 0.554 1.75 0.64 2.74 0.1 0.992 0.094 1.512-0.012 1.564zM24.042 30.728c2.166 0 3.798-0.258 4.908-0.78 1.106-0.52 1.666-1.592 1.666-3.21 0-0.938-0.352-1.722-1.058-2.348-0.362-0.34-0.788-0.546-1.276-0.626-0.476-0.078-1.214-0.078-2.208 0-0.99 0.080-1.668 0.116-2.032 0.116-0.496 0-1.034-0.026-1.702-0.078-0.668-0.050-1.192-0.082-1.566-0.098-0.382-0.012-0.79 0.036-1.232 0.138-0.446 0.106-0.808 0.286-1.1 0.546-0.672 0.6-1.014 1.382-1.014 2.348 0 1.618 0.548 2.69 1.642 3.21 1.094 0.522 2.722 0.78 4.888 0.78zM20.91 25.252c0.34 0 0.632 0.168 0.88 0.51 0.248 0.338 0.374 0.756 0.374 1.25 0 0.496-0.124 0.914-0.374 1.252-0.248 0.338-0.542 0.508-0.88 0.508-0.364 0-0.674-0.168-0.924-0.508-0.248-0.338-0.374-0.756-0.374-1.252s0.124-0.912 0.374-1.25c0.25-0.342 0.56-0.51 0.924-0.51z"></path>
</svg>
<svg id="icon-twitter" width="48" height="48" viewBox="0 0 48 48" x="64" y="0">
<path fill="#ff264a" d="M30.558 20.566c0.716-0.442 1.194-1.042 1.426-1.808-0.698 0.372-1.394 0.624-2.090 0.766-0.624-0.672-1.416-1.014-2.364-1.014-0.928 0-1.71 0.326-2.35 0.958-0.634 0.636-0.956 1.412-0.956 2.316 0 0.274 0.034 0.52 0.104 0.728-2.736-0.096-4.998-1.228-6.782-3.412-0.302 0.534-0.454 1.078-0.454 1.64 0 1.156 0.488 2.072 1.46 2.746-0.554-0.046-1.042-0.188-1.46-0.418 0 0.826 0.242 1.516 0.73 2.124 0.486 0.6 1.114 0.984 1.878 1.146-0.278 0.072-0.57 0.106-0.87 0.106-0.28 0-0.474-0.024-0.592-0.074 0.208 0.674 0.592 1.218 1.148 1.636 0.554 0.42 1.194 0.64 1.914 0.66-1.182 0.93-2.538 1.388-4.070 1.388-0.376 0-0.64-0.004-0.8-0.034 1.508 0.978 3.188 1.466 5.042 1.466 1.902 0 3.584-0.482 5.044-1.446 1.46-0.958 2.542-2.14 3.234-3.534 0.696-1.39 1.042-2.838 1.042-4.348v-0.418c0.672-0.506 1.218-1.076 1.636-1.708-0.596 0.266-1.222 0.444-1.87 0.534z"></path>
<path fill="#ff264a" d="M24 42c-4.98 0-9.27-1.78-12.752-5.292-3.482-3.502-5.248-7.778-5.248-12.708 0-4.976 1.768-9.268 5.254-12.75 3.48-3.482 7.768-5.25 12.746-5.25 4.932 0 9.208 1.766 12.708 5.248 3.512 3.484 5.292 7.776 5.292 12.752 0 4.93-1.778 9.208-5.288 12.714-3.502 3.506-7.778 5.286-12.712 5.286zM24 10c-3.932 0-7.176 1.334-9.916 4.080-2.75 2.744-4.084 5.988-4.084 9.92 0 3.888 1.336 7.124 4.086 9.89 2.744 2.766 5.986 4.11 9.914 4.11 3.886 0 7.12-1.346 9.884-4.114 2.77-2.768 4.116-6.004 4.116-9.886 0-3.926-1.344-7.17-4.11-9.914-2.766-2.75-6-4.086-9.89-4.086z"></path>
</svg>
<svg id="icon-facebook" width="48" height="48" viewBox="0 0 48 48" x="128" y="0">
<path fill="#ff264a" d="M36.708 11.248c-3.5-3.482-7.776-5.248-12.708-5.248-4.978 0-9.266 1.768-12.746 5.25-3.486 3.482-5.254 7.774-5.254 12.75 0 4.93 1.766 9.206 5.248 12.708 3.482 3.512 7.772 5.292 12.752 5.292 4.934 0 9.21-1.78 12.712-5.286 3.51-3.506 5.288-7.784 5.288-12.714 0-4.976-1.78-9.268-5.292-12.752zM33.884 33.886c-2.274 2.278-4.872 3.576-7.884 3.97v-9.856h4v-4h-4v-2.8c0-0.662 0.538-1.2 1.202-1.2h2.798v-4h-2.794c-1.484 0-2.722 0.546-3.714 1.644-0.992 1.094-1.492 2.43-1.492 4.016v2.34h-4v4h4v9.86c-3.044-0.39-5.652-1.69-7.914-3.968-2.75-2.768-4.086-6.004-4.086-9.892 0-3.932 1.334-7.176 4.084-9.92 2.74-2.746 5.984-4.080 9.916-4.080 3.89 0 7.124 1.336 9.89 4.086 2.766 2.744 4.11 5.988 4.11 9.914 0 3.882-1.346 7.118-4.116 9.886z"></path>
</svg>
<svg id="icon-at-" width="48" height="48" viewBox="0 0 48 48" x="192" y="0">
<path fill="#ff264a" d="M23.688 15c-4.962 0-8.876 4.038-8.876 9s4.1 9 9.062 9c1.816 0 3.598-0.54 5.094-1.556 0.456-0.31 0.59-0.932 0.278-1.388-0.31-0.458-0.924-0.574-1.382-0.264-1.16 0.792-2.516 1.208-3.93 1.208-3.86 0-6.998-3.14-6.998-7s2.892-7 6.752-7 6.75 3.14 6.75 7v0.5c0 0.828-0.672 1.5-1.5 1.5s-1.5-0.672-1.5-1.5v-3.5c0-0.552-0.198-1-0.75-1-0.41 0-0.636 0.248-0.792 0.602-0.606-0.376-1.256-0.602-2.020-0.602-2.208 0-3.968 1.792-3.968 4s1.808 4 4.016 4c1.124 0 2.146-0.47 2.876-1.218 0.638 0.738 1.328 1.218 2.384 1.218 1.93 0 3.254-1.57 3.254-3.5v-0.5c0-4.962-3.788-9-8.75-9zM23.938 26c-1.102 0-2-0.898-2-2s0.898-2 2-2 2 0.898 2 2-0.898 2-2 2z"></path>
<path fill="#ff264a" d="M24 42c-9.926 0-18-8.074-18-18s8.074-18 18-18 18 8.074 18 18-8.074 18-18 18zM24 10c-7.718 0-14 6.282-14 14s6.282 14 14 14 14-6.282 14-14-6.282-14-14-14z"></path>
</svg>
</svg>
