<svg id="icon-facebook" width="48" height="48" viewBox="0 0 48 48" x="0" y="0">
	<path d="M36.708 11.248c-3.5-3.482-7.776-5.248-12.708-5.248-4.978 0-9.266 1.768-12.746 5.25-3.486 3.482-5.254 7.774-5.254 12.75 0 4.93 1.766 9.206 5.248 12.708 3.482 3.512 7.772 5.292 12.752 5.292 4.934 0 9.21-1.78 12.712-5.286 3.51-3.506 5.288-7.784 5.288-12.714 0-4.976-1.78-9.268-5.292-12.752zM33.884 33.886c-2.274 2.278-4.872 3.576-7.884 3.97v-9.856h4v-4h-4v-2.8c0-0.662 0.538-1.2 1.202-1.2h2.798v-4h-2.794c-1.484 0-2.722 0.546-3.714 1.644-0.992 1.094-1.492 2.43-1.492 4.016v2.34h-4v4h4v9.86c-3.044-0.39-5.652-1.69-7.914-3.968-2.75-2.768-4.086-6.004-4.086-9.892 0-3.932 1.334-7.176 4.084-9.92 2.74-2.746 5.984-4.080 9.916-4.080 3.89 0 7.124 1.336 9.89 4.086 2.766 2.744 4.11 5.988 4.11 9.914 0 3.882-1.346 7.118-4.116 9.886z"></path>
</svg>