<?xml version="1.0" encoding="utf-8"?>
<!-- Generator: Adobe Illustrator 19.1.0, SVG Export Plug-In . SVG Version: 6.00 Build 0)  -->
<!DOCTYPE svg PUBLIC "-//W3C//DTD SVG 1.1//EN" "http://www.w3.org/Graphics/SVG/1.1/DTD/svg11.dtd">
<svg version="1.1" id="icon-at-" xmlns="http://www.w3.org/2000/svg" xmlns:xlink="http://www.w3.org/1999/xlink" viewBox="-153 349 158 77">
<svg id="icon-github" viewBox="0 0 48 48" x="0" y="0">
<path fill="#1B263B" d="M-132.5,386c-9.9,0-18-8.1-18-18s8.1-18,18-18s18,8.1,18,18S-122.6,386-132.5,386z M-132.5,354
	c-7.7,0-14,6.3-14,14s6.3,14,14,14s14-6.3,14-14S-124.8,354-132.5,354z"/>
<path fill="#1B263B" d="M-129.4,369.3c0.3,0,0.6,0.2,0.9,0.5c0.2,0.3,0.4,0.8,0.4,1.2c0,0.5-0.1,0.9-0.4,1.3c-0.2,0.3-0.5,0.5-0.9,0.5
	c-0.4,0-0.7-0.2-0.9-0.5c-0.2-0.3-0.4-0.8-0.4-1.3s0.1-0.9,0.4-1.2C-130,369.4-129.7,369.3-129.4,369.3z M-124.9,364.7
	c1,1,1.4,2.3,1.4,3.8c0,1-0.1,1.8-0.3,2.6c-0.2,0.8-0.5,1.4-0.8,1.9c-0.3,0.5-0.8,0.9-1.3,1.3c-0.5,0.4-1,0.6-1.4,0.8
	c-0.4,0.2-0.9,0.3-1.4,0.4c-0.5,0.1-0.9,0.1-1.2,0.2c-0.3,0-0.6,0-0.9,0c-0.1,0-0.3,0-0.7,0c-0.4,0-0.7,0-1,0s-0.6,0-1,0
	c-0.4,0-0.6,0-0.7,0c-0.3,0-0.6,0-0.9,0c-0.3,0-0.7-0.1-1.2-0.2c-0.5-0.1-1-0.2-1.4-0.4c-0.4-0.2-0.9-0.4-1.4-0.8
	c-0.5-0.4-0.9-0.8-1.3-1.3c-0.3-0.5-0.6-1.1-0.8-1.9c-0.2-0.8-0.3-1.6-0.3-2.6c0-1.5,0.5-2.8,1.4-3.8c-0.1-0.1-0.1-0.6,0-1.6
	c0.1-1,0.3-1.9,0.6-2.7c1.2,0.1,2.7,0.8,4.5,2c0.6-0.2,1.4-0.2,2.5-0.2c1.1,0,1.9,0.1,2.5,0.2c0.8-0.5,1.6-1,2.3-1.3
	c0.7-0.3,1.3-0.5,1.6-0.6l0.5-0.1c0.3,0.8,0.6,1.8,0.6,2.7C-124.8,364.1-124.8,364.6-124.9,364.7z M-132.5,374.7
	c2.2,0,3.8-0.3,4.9-0.8c1.1-0.5,1.7-1.6,1.7-3.2c0-0.9-0.4-1.7-1.1-2.3c-0.4-0.3-0.8-0.5-1.3-0.6c-0.5-0.1-1.2-0.1-2.2,0
	c-1,0.1-1.7,0.1-2,0.1c-0.5,0-1,0-1.7-0.1c-0.7,0-1.2-0.1-1.6-0.1c-0.4,0-0.8,0-1.2,0.1c-0.4,0.1-0.8,0.3-1.1,0.5
	c-0.7,0.6-1,1.4-1,2.3c0,1.6,0.5,2.7,1.6,3.2C-136.3,374.5-134.7,374.7-132.5,374.7L-132.5,374.7z M-135.6,369.3
	c0.3,0,0.6,0.2,0.9,0.5c0.2,0.3,0.4,0.8,0.4,1.2c0,0.5-0.1,0.9-0.4,1.3c-0.2,0.3-0.5,0.5-0.9,0.5c-0.4,0-0.7-0.2-0.9-0.5
	c-0.2-0.3-0.4-0.8-0.4-1.3s0.1-0.9,0.4-1.2C-136.3,369.4-136,369.3-135.6,369.3z"/>
<path fill="#1B263B" d="M-86.9,364.6c0.7-0.4,1.2-1,1.4-1.8c-0.7,0.4-1.4,0.6-2.1,0.8c-0.6-0.7-1.4-1-2.4-1c-0.9,0-1.7,0.3-2.3,1
	c-0.6,0.6-1,1.4-1,2.3c0,0.3,0,0.5,0.1,0.7c-2.7-0.1-5-1.2-6.8-3.4c-0.3,0.5-0.5,1.1-0.5,1.6c0,1.2,0.5,2.1,1.5,2.7
	c-0.6,0-1-0.2-1.5-0.4c0,0.8,0.2,1.5,0.7,2.1c0.5,0.6,1.1,1,1.9,1.1c-0.3,0.1-0.6,0.1-0.9,0.1c-0.3,0-0.5,0-0.6-0.1
	c0.2,0.7,0.6,1.2,1.1,1.6c0.6,0.4,1.2,0.6,1.9,0.7c-1.2,0.9-2.5,1.4-4.1,1.4c-0.4,0-0.6,0-0.8,0c1.5,1,3.2,1.5,5,1.5
	c1.9,0,3.6-0.5,5-1.4c1.5-1,2.5-2.1,3.2-3.5c0.7-1.4,1-2.8,1-4.3v-0.4c0.7-0.5,1.2-1.1,1.6-1.7C-85.7,364.3-86.3,364.5-86.9,364.6z"
	/>
</svg>
<path fill="#1B263B" d="M-93.5,386c-5,0-9.3-1.8-12.8-5.3c-3.5-3.5-5.2-7.8-5.2-12.7c0-5,1.8-9.3,5.3-12.8c3.5-3.5,7.8-5.2,12.7-5.2
	c4.9,0,9.2,1.8,12.7,5.2c3.5,3.5,5.3,7.8,5.3,12.8c0,4.9-1.8,9.2-5.3,12.7C-84.3,384.2-88.6,386-93.5,386z M-93.5,354
	c-3.9,0-7.2,1.3-9.9,4.1c-2.8,2.7-4.1,6-4.1,9.9c0,3.9,1.3,7.1,4.1,9.9c2.7,2.8,6,4.1,9.9,4.1c3.9,0,7.1-1.3,9.9-4.1
	c2.8-2.8,4.1-6,4.1-9.9c0-3.9-1.3-7.2-4.1-9.9C-86.4,355.3-89.6,354-93.5,354z"/>
<path fill="#1B263B" d="M-41.8,355.2c-3.5-3.5-7.8-5.2-12.7-5.2c-5,0-9.3,1.8-12.7,5.2c-3.5,3.5-5.3,7.8-5.3,12.8
	c0,4.9,1.8,9.2,5.2,12.7c3.5,3.5,7.8,5.3,12.8,5.3c4.9,0,9.2-1.8,12.7-5.3c3.5-3.5,5.3-7.8,5.3-12.7
	C-36.5,363-38.3,358.7-41.8,355.2z M-44.6,377.9c-2.3,2.3-4.9,3.6-7.9,4V372h4v-4h-4v-2.8c0-0.7,0.5-1.2,1.2-1.2h2.8v-4h-2.8
	c-1.5,0-2.7,0.5-3.7,1.6c-1,1.1-1.5,2.4-1.5,4v2.3h-4v4h4v9.9c-3-0.4-5.7-1.7-7.9-4c-2.8-2.8-4.1-6-4.1-9.9c0-3.9,1.3-7.2,4.1-9.9
	c2.7-2.7,6-4.1,9.9-4.1c3.9,0,7.1,1.3,9.9,4.1c2.8,2.7,4.1,6,4.1,9.9C-40.5,371.9-41.8,375.1-44.6,377.9z"/>
<path fill="#1B263B" d="M-15.8,359c-5,0-8.9,4-8.9,9s4.1,9,9.1,9c1.8,0,3.6-0.5,5.1-1.6c0.5-0.3,0.6-0.9,0.3-1.4
	c-0.3-0.5-0.9-0.6-1.4-0.3c-1.2,0.8-2.5,1.2-3.9,1.2c-3.9,0-7-3.1-7-7s2.9-7,6.8-7s6.8,3.1,6.8,7v0.5c0,0.8-0.7,1.5-1.5,1.5
	s-1.5-0.7-1.5-1.5V365c0-0.6-0.2-1-0.8-1c-0.4,0-0.6,0.2-0.8,0.6c-0.6-0.4-1.3-0.6-2-0.6c-2.2,0-4,1.8-4,4s1.8,4,4,4
	c1.1,0,2.1-0.5,2.9-1.2c0.6,0.7,1.3,1.2,2.4,1.2c1.9,0,3.3-1.6,3.3-3.5V368C-7.1,363-10.9,359-15.8,359z M-15.6,370
	c-1.1,0-2-0.9-2-2s0.9-2,2-2s2,0.9,2,2S-14.5,370-15.6,370z"/>
<path fill="#1B263B" d="M-15.5,386c-9.9,0-18-8.1-18-18s8.1-18,18-18s18,8.1,18,18S-5.6,386-15.5,386z M-15.5,354c-7.7,0-14,6.3-14,14
	s6.3,14,14,14s14-6.3,14-14S-7.8,354-15.5,354z"/>
<path fill="#FF264A" d="M-132.5,423.9c-9.9,0-18-8.1-18-18c0-9.9,8.1-18,18-18s18,8.1,18,18C-114.5,415.9-122.6,423.9-132.5,423.9z
	 M-132.5,391.9c-7.7,0-14,6.3-14,14s6.3,14,14,14s14-6.3,14-14S-124.8,391.9-132.5,391.9z"/>
<path fill="#FF264A" d="M-129.4,407.2c0.3,0,0.6,0.2,0.9,0.5c0.2,0.3,0.4,0.8,0.4,1.2c0,0.5-0.1,0.9-0.4,1.3c-0.2,0.3-0.5,0.5-0.9,0.5
	c-0.4,0-0.7-0.2-0.9-0.5c-0.2-0.3-0.4-0.8-0.4-1.3s0.1-0.9,0.4-1.2C-130,407.4-129.7,407.2-129.4,407.2z M-124.9,402.6
	c1,1,1.4,2.3,1.4,3.8c0,1-0.1,1.8-0.3,2.6c-0.2,0.8-0.5,1.4-0.8,1.9c-0.3,0.5-0.8,0.9-1.3,1.3c-0.5,0.4-1,0.6-1.4,0.8
	c-0.4,0.2-0.9,0.3-1.4,0.4c-0.5,0.1-0.9,0.1-1.2,0.2c-0.3,0-0.6,0-0.9,0c-0.1,0-0.3,0-0.7,0c-0.4,0-0.7,0-1,0s-0.6,0-1,0
	c-0.4,0-0.6,0-0.7,0c-0.3,0-0.6,0-0.9,0c-0.3,0-0.7-0.1-1.2-0.2c-0.5-0.1-1-0.2-1.4-0.4c-0.4-0.2-0.9-0.4-1.4-0.8
	c-0.5-0.4-0.9-0.8-1.3-1.3c-0.3-0.5-0.6-1.1-0.8-1.9c-0.2-0.8-0.3-1.6-0.3-2.6c0-1.5,0.5-2.8,1.4-3.8c-0.1-0.1-0.1-0.6,0-1.6
	c0.1-1,0.3-1.9,0.6-2.7c1.2,0.1,2.7,0.8,4.5,2c0.6-0.2,1.4-0.2,2.5-0.2c1.1,0,1.9,0.1,2.5,0.2c0.8-0.5,1.6-1,2.3-1.3
	c0.7-0.3,1.3-0.5,1.6-0.6l0.5-0.1c0.3,0.8,0.6,1.8,0.6,2.7C-124.8,402-124.8,402.6-124.9,402.6z M-132.5,412.7
	c2.2,0,3.8-0.3,4.9-0.8c1.1-0.5,1.7-1.6,1.7-3.2c0-0.9-0.4-1.7-1.1-2.3c-0.4-0.3-0.8-0.5-1.3-0.6c-0.5-0.1-1.2-0.1-2.2,0
	c-1,0.1-1.7,0.1-2,0.1c-0.5,0-1,0-1.7-0.1c-0.7,0-1.2-0.1-1.6-0.1c-0.4,0-0.8,0-1.2,0.1c-0.4,0.1-0.8,0.3-1.1,0.5
	c-0.7,0.6-1,1.4-1,2.3c0,1.6,0.5,2.7,1.6,3.2C-136.3,412.4-134.7,412.7-132.5,412.7L-132.5,412.7z M-135.6,407.2
	c0.3,0,0.6,0.2,0.9,0.5c0.2,0.3,0.4,0.8,0.4,1.2c0,0.5-0.1,0.9-0.4,1.3c-0.2,0.3-0.5,0.5-0.9,0.5c-0.4,0-0.7-0.2-0.9-0.5
	c-0.2-0.3-0.4-0.8-0.4-1.3s0.1-0.9,0.4-1.2C-136.3,407.4-136,407.2-135.6,407.2z"/>
<path fill="#FF264A" d="M-86.9,402.6c0.7-0.4,1.2-1,1.4-1.8c-0.7,0.4-1.4,0.6-2.1,0.8c-0.6-0.7-1.4-1-2.4-1c-0.9,0-1.7,0.3-2.3,1
	c-0.6,0.6-1,1.4-1,2.3c0,0.3,0,0.5,0.1,0.7c-2.7-0.1-5-1.2-6.8-3.4c-0.3,0.5-0.5,1.1-0.5,1.6c0,1.2,0.5,2.1,1.5,2.7
	c-0.6,0-1-0.2-1.5-0.4c0,0.8,0.2,1.5,0.7,2.1c0.5,0.6,1.1,1,1.9,1.1c-0.3,0.1-0.6,0.1-0.9,0.1c-0.3,0-0.5,0-0.6-0.1
	c0.2,0.7,0.6,1.2,1.1,1.6c0.6,0.4,1.2,0.6,1.9,0.7c-1.2,0.9-2.5,1.4-4.1,1.4c-0.4,0-0.6,0-0.8,0c1.5,1,3.2,1.5,5,1.5
	c1.9,0,3.6-0.5,5-1.4c1.5-1,2.5-2.1,3.2-3.5c0.7-1.4,1-2.8,1-4.3v-0.4c0.7-0.5,1.2-1.1,1.6-1.7C-85.7,402.3-86.3,402.5-86.9,402.6z"
	/>
<path fill="#FF264A" d="M-93.5,424c-5,0-9.3-1.8-12.8-5.3c-3.5-3.5-5.2-7.8-5.2-12.7c0-5,1.8-9.3,5.3-12.8c3.5-3.5,7.8-5.2,12.7-5.2
	c4.9,0,9.2,1.8,12.7,5.2c3.5,3.5,5.3,7.8,5.3,12.8c0,4.9-1.8,9.2-5.3,12.7C-84.3,422.2-88.6,424-93.5,424z M-93.5,392
	c-3.9,0-7.2,1.3-9.9,4.1c-2.8,2.7-4.1,6-4.1,9.9c0,3.9,1.3,7.1,4.1,9.9c2.7,2.8,6,4.1,9.9,4.1c3.9,0,7.1-1.3,9.9-4.1
	c2.8-2.8,4.1-6,4.1-9.9c0-3.9-1.3-7.2-4.1-9.9C-86.4,393.3-89.6,392-93.5,392z"/>
<path fill="#FF264A" d="M-41.8,393.2c-3.5-3.5-7.8-5.2-12.7-5.2c-5,0-9.3,1.8-12.7,5.2c-3.5,3.5-5.3,7.8-5.3,12.8
	c0,4.9,1.8,9.2,5.2,12.7c3.5,3.5,7.8,5.3,12.8,5.3c4.9,0,9.2-1.8,12.7-5.3c3.5-3.5,5.3-7.8,5.3-12.7
	C-36.5,401-38.3,396.7-41.8,393.2z M-44.6,415.9c-2.3,2.3-4.9,3.6-7.9,4V410h4v-4h-4v-2.8c0-0.7,0.5-1.2,1.2-1.2h2.8v-4h-2.8
	c-1.5,0-2.7,0.5-3.7,1.6c-1,1.1-1.5,2.4-1.5,4v2.3h-4v4h4v9.9c-3-0.4-5.7-1.7-7.9-4c-2.8-2.8-4.1-6-4.1-9.9c0-3.9,1.3-7.2,4.1-9.9
	c2.7-2.7,6-4.1,9.9-4.1c3.9,0,7.1,1.3,9.9,4.1c2.8,2.7,4.1,6,4.1,9.9C-40.5,409.9-41.8,413.1-44.6,415.9z"/>
<path fill="#FF264A" d="M-15.8,397c-5,0-8.9,4-8.9,9s4.1,9,9.1,9c1.8,0,3.6-0.5,5.1-1.6c0.5-0.3,0.6-0.9,0.3-1.4
	c-0.3-0.5-0.9-0.6-1.4-0.3c-1.2,0.8-2.5,1.2-3.9,1.2c-3.9,0-7-3.1-7-7s2.9-7,6.8-7s6.8,3.1,6.8,7v0.5c0,0.8-0.7,1.5-1.5,1.5
	s-1.5-0.7-1.5-1.5V403c0-0.6-0.2-1-0.8-1c-0.4,0-0.6,0.2-0.8,0.6c-0.6-0.4-1.3-0.6-2-0.6c-2.2,0-4,1.8-4,4s1.8,4,4,4
	c1.1,0,2.1-0.5,2.9-1.2c0.6,0.7,1.3,1.2,2.4,1.2c1.9,0,3.3-1.6,3.3-3.5V406C-7.1,401-10.9,397-15.8,397z M-15.6,408
	c-1.1,0-2-0.9-2-2s0.9-2,2-2s2,0.9,2,2S-14.5,408-15.6,408z"/>
<path fill="#FF264A" d="M-15.5,424c-9.9,0-18-8.1-18-18s8.1-18,18-18s18,8.1,18,18S-5.6,424-15.5,424z M-15.5,392c-7.7,0-14,6.3-14,14
	s6.3,14,14,14s14-6.3,14-14S-7.8,392-15.5,392z"/>
</svg>
