<svg id="icon-at" width="48" height="48" viewBox="0 0 48 48" x="0" y="0">
	<path d="M23.688 15c-4.962 0-8.876 4.038-8.876 9s4.1 9 9.062 9c1.816 0 3.598-0.54 5.094-1.556 0.456-0.31 0.59-0.932 0.278-1.388-0.31-0.458-0.924-0.574-1.382-0.264-1.16 0.792-2.516 1.208-3.93 1.208-3.86 0-6.998-3.14-6.998-7s2.892-7 6.752-7 6.75 3.14 6.75 7v0.5c0 0.828-0.672 1.5-1.5 1.5s-1.5-0.672-1.5-1.5v-3.5c0-0.552-0.198-1-0.75-1-0.41 0-0.636 0.248-0.792 0.602-0.606-0.376-1.256-0.602-2.020-0.602-2.208 0-3.968 1.792-3.968 4s1.808 4 4.016 4c1.124 0 2.146-0.47 2.876-1.218 0.638 0.738 1.328 1.218 2.384 1.218 1.93 0 3.254-1.57 3.254-3.5v-0.5c0-4.962-3.788-9-8.75-9zM23.938 26c-1.102 0-2-0.898-2-2s0.898-2 2-2 2 0.898 2 2-0.898 2-2 2z"></path>
	<path d="M24 42c-9.926 0-18-8.074-18-18s8.074-18 18-18 18 8.074 18 18-8.074 18-18 18zM24 10c-7.718 0-14 6.282-14 14s6.282 14 14 14 14-6.282 14-14-6.282-14-14-14z"></path>
</svg>